<svg xmlns="http://www.w3.org/2000/svg" width="900" height="480" viewBox="0 0 900 480">
<rect width="100%" height="100%" fill="white"/>
<text x="28" y="36" font-family="Inter, ui-sans-serif, system-ui, -apple-system, Segoe UI, sans-serif" font-size="22" font-weight="700" fill="#111827" text-anchor="start">HellaSwag normalized accuracy</text>
<text x="28" y="60" font-family="Inter, ui-sans-serif, system-ui, -apple-system, Segoe UI, sans-serif" font-size="13" font-weight="400" fill="#64748b" text-anchor="start">9-point moving average of 32-example training probes</text>
<rect x="72" y="82" width="804" height="336" fill="white" stroke="#e2e8f0"/>
<line x1="72" y1="418.0" x2="876" y2="418.0" stroke="#e2e8f0" stroke-width="1"/>
<text x="62" y="422.0" font-family="Inter, ui-sans-serif, system-ui, -apple-system, Segoe UI, sans-serif" font-size="12" font-weight="400" fill="#64748b" text-anchor="end">12%</text>
<line x1="72" y1="334.0" x2="876" y2="334.0" stroke="#e2e8f0" stroke-width="1"/>
<text x="62" y="338.0" font-family="Inter, ui-sans-serif, system-ui, -apple-system, Segoe UI, sans-serif" font-size="12" font-weight="400" fill="#64748b" text-anchor="end">18%</text>
<line x1="72" y1="250.0" x2="876" y2="250.0" stroke="#e2e8f0" stroke-width="1"/>
<text x="62" y="254.0" font-family="Inter, ui-sans-serif, system-ui, -apple-system, Segoe UI, sans-serif" font-size="12" font-weight="400" fill="#64748b" text-anchor="end">24%</text>
<line x1="72" y1="166.0" x2="876" y2="166.0" stroke="#e2e8f0" stroke-width="1"/>
<text x="62" y="169.99999999999997" font-family="Inter, ui-sans-serif, system-ui, -apple-system, Segoe UI, sans-serif" font-size="12" font-weight="400" fill="#64748b" text-anchor="end">30%</text>
<line x1="72" y1="82.0" x2="876" y2="82.0" stroke="#e2e8f0" stroke-width="1"/>
<text x="62" y="86.0" font-family="Inter, ui-sans-serif, system-ui, -apple-system, Segoe UI, sans-serif" font-size="12" font-weight="400" fill="#64748b" text-anchor="end">36%</text>
<line x1="229.4" y1="82" x2="229.4" y2="418" stroke="#e2e8f0" stroke-width="1"/>
<text x="229.41404108799347" y="442" font-family="Inter, ui-sans-serif, system-ui, -apple-system, Segoe UI, sans-serif" font-size="12" font-weight="400" fill="#64748b" text-anchor="middle">2</text>
<line x1="391.1" y1="82" x2="391.1" y2="418" stroke="#e2e8f0" stroke-width="1"/>
<text x="391.0656829771254" y="442" font-family="Inter, ui-sans-serif, system-ui, -apple-system, Segoe UI, sans-serif" font-size="12" font-weight="400" fill="#64748b" text-anchor="middle">4</text>
<line x1="552.7" y1="82" x2="552.7" y2="418" stroke="#e2e8f0" stroke-width="1"/>
<text x="552.7173248662573" y="442" font-family="Inter, ui-sans-serif, system-ui, -apple-system, Segoe UI, sans-serif" font-size="12" font-weight="400" fill="#64748b" text-anchor="middle">6</text>
<line x1="714.4" y1="82" x2="714.4" y2="418" stroke="#e2e8f0" stroke-width="1"/>
<text x="714.3689667553892" y="442" font-family="Inter, ui-sans-serif, system-ui, -apple-system, Segoe UI, sans-serif" font-size="12" font-weight="400" fill="#64748b" text-anchor="middle">8</text>
<text x="474.0" y="468" font-family="Inter, ui-sans-serif, system-ui, -apple-system, Segoe UI, sans-serif" font-size="12" font-weight="400" fill="#64748b" text-anchor="middle">tokens seen, billions</text>
<text x="16" y="250.0" font-family="Inter, ui-sans-serif, system-ui, -apple-system, Segoe UI, sans-serif" font-size="12" font-weight="400" fill="#64748b" text-anchor="start">accuracy</text>
<polyline points="72.0,418.0 76.2,418.0 80.5,403.0 84.7,406.7 89.0,381.9 93.2,372.9 97.4,379.3 101.7,372.9 105.9,362.8 110.1,342.8 114.4,327.7 118.6,307.7 122.9,292.6 127.1,292.6 131.3,267.6 135.6,242.5 139.8,237.5 144.0,217.4 148.3,212.4 152.5,202.4 156.8,212.4 161.0,202.4 165.2,187.3 169.5,207.4 173.7,207.4 177.9,192.3 182.2,207.4 186.4,212.4 190.7,212.4 194.9,212.4 199.1,207.4 203.4,217.4 207.6,212.4 211.8,222.4 216.1,237.5 220.3,237.5 224.6,227.4 228.8,222.4 233.0,212.4 237.3,212.4 241.5,202.4 245.7,202.4 250.0,182.3 254.2,167.3 258.5,162.2 262.7,162.2 266.9,157.2 271.2,152.2 275.4,162.2 279.6,162.2 283.9,147.2 288.1,142.2 292.4,142.2 296.6,142.2 300.8,142.2 305.1,142.2 309.3,137.2 313.5,132.1 317.8,127.1 322.0,127.1 326.3,122.1 330.5,127.1 334.7,112.1 339.0,112.1 343.2,102.1 347.4,112.1 351.7,107.1 355.9,102.1 360.2,122.1 364.4,147.2 368.6,152.2 372.9,162.2 377.1,167.3 381.3,187.3 385.6,182.3 389.8,192.3 394.1,207.4 398.3,187.3 402.5,172.3 406.8,157.2 411.0,172.3 415.2,177.3 419.5,177.3 423.7,182.3 428.0,167.3 432.2,167.3 436.4,177.3 440.7,182.3 444.9,177.3 449.1,162.2 453.4,152.2 457.6,152.2 461.9,157.2 466.1,157.2 470.3,147.2 474.6,147.2 478.8,152.2 483.0,162.2 487.3,172.3 491.5,167.3 495.8,167.3 500.0,152.2 504.2,157.2 508.5,152.2 512.7,142.2 516.9,142.2 521.2,142.2 525.4,122.1 529.7,122.1 533.9,117.1 538.1,107.1 542.4,107.1 546.6,112.1 550.8,122.1 555.1,117.1 559.3,112.1 563.6,122.1 567.8,132.1 572.0,122.1 576.3,137.2 580.5,127.1 584.7,137.2 589.0,132.1 593.2,137.2 597.5,142.2 601.7,132.1 605.9,127.1 610.2,137.2 614.4,132.1 618.7,142.2 622.9,132.1 627.1,132.1 631.4,127.1 635.6,117.1 639.8,117.1 644.1,107.1 648.3,97.0 652.6,102.1 656.8,97.0 661.0,87.0 665.3,82.0 669.5,82.0 673.7,87.0 678.0,107.1 682.2,112.1 686.5,117.1 690.7,107.1 694.9,102.1 699.2,107.1 703.4,112.1 707.6,102.1 711.9,107.1 716.1,97.0 720.4,112.1 724.6,112.1 728.8,122.1 733.1,127.1 737.3,132.1 741.5,132.1 745.8,137.2 750.0,132.1 754.3,127.1 758.5,117.1 762.7,117.1 767.0,112.1 771.2,117.1 775.4,117.1 779.7,117.1 783.9,127.1 788.2,122.1 792.4,132.1 796.6,127.1 800.9,132.1 805.1,132.1 809.3,127.1 813.6,127.1 817.8,117.1 822.1,107.1 826.3,112.1 830.5,102.1 834.8,107.1 839.0,102.1 843.2,102.1 847.5,102.1 851.7,102.1 856.0,102.1 860.2,102.1 864.4,102.1 868.7,97.0 872.9,87.0 876.0,92.0" fill="none" stroke="#2563eb" stroke-width="3" stroke-linecap="round" stroke-linejoin="round"/>
<polyline points="72.0,171.7 876.0,171.7" fill="none" stroke="#059669" stroke-width="2" stroke-linecap="round" stroke-linejoin="round" stroke-dasharray="6 6"/>
<text x="872.0" y="163.74710447761194" font-family="Inter, ui-sans-serif, system-ui, -apple-system, Segoe UI, sans-serif" font-size="12" font-weight="400" fill="#059669" text-anchor="end">GPT-2 full val 29.55%</text>
<polyline points="72.0,237.5 876.0,237.5" fill="none" stroke="#64748b" stroke-width="2" stroke-linecap="round" stroke-linejoin="round" stroke-dasharray="6 6"/>
<text x="872.0" y="229.46268656716418" font-family="Inter, ui-sans-serif, system-ui, -apple-system, Segoe UI, sans-serif" font-size="12" font-weight="400" fill="#64748b" text-anchor="end">random 25%</text>
<line x1="720" y1="36" x2="744" y2="36" stroke="#2563eb" stroke-width="4" stroke-linecap="round"/>
<text x="752" y="40" font-family="Inter, ui-sans-serif, system-ui, -apple-system, Segoe UI, sans-serif" font-size="12" font-weight="400" fill="#64748b" text-anchor="start">miniMoE</text>
</svg>