<svg xmlns="http://www.w3.org/2000/svg" width="900" height="480" viewBox="0 0 900 480">
<rect width="100%" height="100%" fill="white"/>
<text x="28" y="36" font-family="Inter, ui-sans-serif, system-ui, -apple-system, Segoe UI, sans-serif" font-size="22" font-weight="700" fill="#111827" text-anchor="start">Loss curves</text>
<text x="28" y="60" font-family="Inter, ui-sans-serif, system-ui, -apple-system, Segoe UI, sans-serif" font-size="13" font-weight="400" fill="#64748b" text-anchor="start">7-point moving average from the 10B-token training run</text>
<rect x="72" y="82" width="804" height="336" fill="white" stroke="#e2e8f0"/>
<line x1="72" y1="418.0" x2="876" y2="418.0" stroke="#e2e8f0" stroke-width="1"/>
<text x="62" y="422.0" font-family="Inter, ui-sans-serif, system-ui, -apple-system, Segoe UI, sans-serif" font-size="12" font-weight="400" fill="#64748b" text-anchor="end">3.00</text>
<line x1="72" y1="334.0" x2="876" y2="334.0" stroke="#e2e8f0" stroke-width="1"/>
<text x="62" y="338.0" font-family="Inter, ui-sans-serif, system-ui, -apple-system, Segoe UI, sans-serif" font-size="12" font-weight="400" fill="#64748b" text-anchor="end">5.00</text>
<line x1="72" y1="250.0" x2="876" y2="250.0" stroke="#e2e8f0" stroke-width="1"/>
<text x="62" y="254.00000000000003" font-family="Inter, ui-sans-serif, system-ui, -apple-system, Segoe UI, sans-serif" font-size="12" font-weight="400" fill="#64748b" text-anchor="end">7.00</text>
<line x1="72" y1="166.0" x2="876" y2="166.0" stroke="#e2e8f0" stroke-width="1"/>
<text x="62" y="170.0" font-family="Inter, ui-sans-serif, system-ui, -apple-system, Segoe UI, sans-serif" font-size="12" font-weight="400" fill="#64748b" text-anchor="end">9.00</text>
<line x1="72" y1="82.0" x2="876" y2="82.0" stroke="#e2e8f0" stroke-width="1"/>
<text x="62" y="86.0" font-family="Inter, ui-sans-serif, system-ui, -apple-system, Segoe UI, sans-serif" font-size="12" font-weight="400" fill="#64748b" text-anchor="end">11.00</text>
<line x1="232.8" y1="82" x2="232.8" y2="418" stroke="#e2e8f0" stroke-width="1"/>
<text x="232.77037550138948" y="442" font-family="Inter, ui-sans-serif, system-ui, -apple-system, Segoe UI, sans-serif" font-size="12" font-weight="400" fill="#64748b" text-anchor="middle">2</text>
<line x1="393.6" y1="82" x2="393.6" y2="418" stroke="#e2e8f0" stroke-width="1"/>
<text x="393.58290704304744" y="442" font-family="Inter, ui-sans-serif, system-ui, -apple-system, Segoe UI, sans-serif" font-size="12" font-weight="400" fill="#64748b" text-anchor="middle">4</text>
<line x1="554.4" y1="82" x2="554.4" y2="418" stroke="#e2e8f0" stroke-width="1"/>
<text x="554.3954385847053" y="442" font-family="Inter, ui-sans-serif, system-ui, -apple-system, Segoe UI, sans-serif" font-size="12" font-weight="400" fill="#64748b" text-anchor="middle">6</text>
<line x1="715.2" y1="82" x2="715.2" y2="418" stroke="#e2e8f0" stroke-width="1"/>
<text x="715.2079701263632" y="442" font-family="Inter, ui-sans-serif, system-ui, -apple-system, Segoe UI, sans-serif" font-size="12" font-weight="400" fill="#64748b" text-anchor="middle">8</text>
<text x="474.0" y="468" font-family="Inter, ui-sans-serif, system-ui, -apple-system, Segoe UI, sans-serif" font-size="12" font-weight="400" fill="#64748b" text-anchor="middle">tokens seen, billions</text>
<text x="16" y="250.0" font-family="Inter, ui-sans-serif, system-ui, -apple-system, Segoe UI, sans-serif" font-size="12" font-weight="400" fill="#64748b" text-anchor="start">loss</text>
<polyline points="72.0,82.0 76.2,157.3 80.4,196.8 84.6,221.0 88.8,239.3 93.0,254.2 97.3,266.6 101.5,304.2 105.7,322.3 109.9,335.3 114.1,346.3 118.3,356.0 122.5,363.9 126.8,370.1 131.0,375.3 135.2,379.2 139.4,381.9 143.6,384.4 147.8,385.7 152.1,387.2 156.3,388.1 160.5,389.2 164.7,389.9 168.9,390.8 173.1,391.7 177.3,392.7 181.6,392.5 185.8,393.6 190.0,395.1 194.2,395.8 198.4,396.5 202.6,396.9 206.9,397.6 211.1,398.9 215.3,399.5 219.5,399.9 223.7,400.0 227.9,400.5 232.2,400.9 236.4,401.2 240.6,400.8 244.8,400.5 249.0,401.0 253.2,402.3 257.4,402.3 261.7,402.5 265.9,403.0 270.1,403.3 274.3,403.6 278.5,402.9 282.7,403.3 287.0,403.6 291.2,403.7 295.4,403.3 299.6,404.1 303.8,404.4 308.0,405.5 312.2,404.7 316.5,405.9 320.7,406.1 324.9,406.1 329.1,405.7 333.3,405.6 337.5,405.3 341.8,404.6 346.0,403.5 350.2,404.1 354.4,404.6 358.6,405.3 362.8,405.6 367.1,405.4 371.3,406.5 375.5,407.0 379.7,406.6 383.9,407.0 388.1,407.0 392.3,407.0 396.6,407.3 400.8,407.6 405.0,407.6 409.2,407.8 413.4,407.4 417.6,407.6 421.9,407.2 426.1,407.7 430.3,407.5 434.5,408.0 438.7,408.2 442.9,408.5 447.1,408.2 451.4,408.5 455.6,407.6 459.8,408.0 464.0,408.0 468.2,408.3 472.4,408.5 476.7,408.6 480.9,408.8 485.1,409.5 489.3,408.9 493.5,409.0 497.7,409.0 501.9,408.9 506.2,409.1 510.4,409.5 514.6,409.7 518.8,410.4 523.0,410.6 527.2,410.7 531.5,411.0 535.7,411.3 539.9,410.9 544.1,410.9 548.3,411.1 552.5,411.0 556.8,411.3 561.0,411.5 565.2,411.5 569.4,411.6 573.6,412.0 577.8,411.9 582.0,411.8 586.3,411.6 590.5,411.8 594.7,411.9 598.9,412.4 603.1,412.5 607.3,412.8 611.6,413.1 615.8,413.7 620.0,413.6 624.2,413.5 628.4,413.6 632.6,413.5 636.8,413.6 641.1,413.8 645.3,413.5 649.5,413.5 653.7,413.6 657.9,413.3 662.1,413.6 666.4,413.8 670.6,413.3 674.8,413.7 679.0,414.3 683.2,414.5 687.4,414.9 691.7,415.0 695.9,414.9 700.1,415.3 704.3,414.9 708.5,414.6 712.7,415.0 716.9,415.2 721.2,415.5 725.4,415.7 729.6,415.8 733.8,416.2 738.0,416.4 742.2,416.2 746.5,415.9 750.7,415.6 754.9,415.5 759.1,415.7 763.3,415.6 767.5,415.9 771.7,416.3 776.0,417.0 780.2,417.3 784.4,417.3 788.6,417.5 792.8,418.0 797.0,417.4 801.3,417.6 805.5,417.5 809.7,417.3 813.9,417.1 818.1,416.9 822.3,416.6 826.6,417.2 830.8,417.1 835.0,416.8 839.2,417.2 843.4,417.6 847.6,417.5 851.8,417.8 856.1,417.6 860.3,417.4 864.5,417.5 868.7,417.2 872.9,417.1 876.0,416.8" fill="none" stroke="#2563eb" stroke-width="3" stroke-linecap="round" stroke-linejoin="round"/>
<polyline points="76.2,232.3 80.4,253.9 84.6,268.0 88.8,279.1 93.0,288.7 97.3,296.5 101.5,303.8 105.7,322.2 109.9,335.7 114.1,346.7 118.3,355.6 122.5,363.0 126.8,369.5 131.0,375.1 135.2,378.6 139.4,380.7 143.6,382.6 147.8,384.8 152.1,387.1 156.3,388.4 160.5,389.0 164.7,389.9 168.9,391.4 173.1,392.7 177.3,393.0 181.6,393.0 185.8,393.8 190.0,395.0 194.2,395.9 198.4,396.1 202.6,396.2 206.9,397.0 211.1,398.0 215.3,398.5 219.5,398.3 223.7,398.4 227.9,399.0 232.2,400.0 236.4,400.4 240.6,400.2 244.8,400.4 249.0,401.1 253.2,401.8 257.4,401.8 261.7,401.4 265.9,401.7 270.1,402.4 274.3,403.0 278.5,402.9 282.7,402.7 287.0,403.1 291.2,403.8 295.4,404.1 299.6,403.9 303.8,403.7 308.0,404.1 312.2,404.9 316.5,405.1 320.7,404.9 324.9,404.8 329.1,405.4 333.3,405.9 337.5,405.9 341.8,405.4 346.0,405.5 350.2,406.1 354.4,406.6 358.6,406.5 362.8,406.3 367.1,406.6 371.3,407.1 375.5,407.4 379.7,407.2 383.9,406.9 388.1,407.2 392.3,407.8 396.6,408.0 400.8,407.8 405.0,407.7 409.2,408.1 413.4,408.6 417.6,408.6 421.9,408.1 426.1,408.2 430.3,408.6 434.5,409.1 438.7,409.0 442.9,408.8 447.1,409.0 451.4,409.4 455.6,409.7 459.8,409.5 464.0,409.2 468.2,409.4 472.4,410.0 476.7,410.2 480.9,410.0 485.1,409.9 489.3,410.3 493.5,410.7 497.7,410.8 501.9,410.4 506.2,410.3 510.4,410.7 514.6,411.1 518.8,411.0 523.0,410.8 527.2,410.9 531.5,411.3 535.7,411.6 539.9,411.5 544.1,411.2 548.3,411.4 552.5,411.9 556.8,412.2 561.0,411.9 565.2,411.8 569.4,412.1 573.6,412.5 577.8,412.5 582.0,412.1 586.3,412.0 590.5,412.4 594.7,412.8 598.9,412.7 603.1,412.6 607.3,412.6 611.6,413.0 615.8,413.3 620.0,413.2 624.2,412.9 628.4,413.0 632.6,413.5 636.8,413.7 641.1,413.5 645.3,413.4 649.5,413.6 653.7,413.9 657.9,414.0 662.1,413.7 666.4,413.6 670.6,413.9 674.8,414.2 679.0,414.2 683.2,414.1 687.4,414.1 691.7,414.5 695.9,414.6 700.1,414.6 704.3,414.4 708.5,414.4 712.7,414.9 716.9,415.0 721.2,414.8 725.4,414.8 729.6,415.0 733.8,415.2 738.0,415.2 742.2,415.0 746.5,414.9 750.7,415.1 754.9,415.4 759.1,415.4 763.3,415.3 767.5,415.3 771.7,415.5 776.0,415.7 780.2,415.6 784.4,415.5 788.6,415.4 792.8,415.8 797.0,416.0 801.3,415.8 805.5,415.7 809.7,415.9 813.9,416.1 818.1,416.0 822.3,415.8 826.6,415.8 830.8,415.9 835.0,416.2 839.2,416.1 843.4,416.0 847.6,416.0 851.8,416.2 856.1,416.3 860.3,416.2 864.5,416.1 868.7,416.1 872.9,416.5 876.0,416.6" fill="none" stroke="#dc2626" stroke-width="3" stroke-linecap="round" stroke-linejoin="round"/>
<circle cx="876.0" cy="414.9" r="5" fill="#111827"/>
<text x="868.0" y="402.9310248801917" font-family="Inter, ui-sans-serif, system-ui, -apple-system, Segoe UI, sans-serif" font-size="12" font-weight="400" fill="#111827" text-anchor="end">test 3.072</text>
<line x1="620" y1="36" x2="644" y2="36" stroke="#2563eb" stroke-width="4" stroke-linecap="round"/>
<text x="652" y="40" font-family="Inter, ui-sans-serif, system-ui, -apple-system, Segoe UI, sans-serif" font-size="12" font-weight="400" fill="#64748b" text-anchor="start">train</text>
<line x1="748" y1="36" x2="772" y2="36" stroke="#dc2626" stroke-width="4" stroke-linecap="round"/>
<text x="780" y="40" font-family="Inter, ui-sans-serif, system-ui, -apple-system, Segoe UI, sans-serif" font-size="12" font-weight="400" fill="#64748b" text-anchor="start">validation</text>
</svg>