<svg xmlns="http://www.w3.org/2000/svg" width="900" height="480" viewBox="0 0 900 480">
<rect width="100%" height="100%" fill="white"/>
<text x="28" y="36" font-family="Inter, ui-sans-serif, system-ui, -apple-system, Segoe UI, sans-serif" font-size="22" font-weight="700" fill="#111827" text-anchor="start">Optimization</text>
<text x="28" y="60" font-family="Inter, ui-sans-serif, system-ui, -apple-system, Segoe UI, sans-serif" font-size="13" font-weight="400" fill="#64748b" text-anchor="start">Gradient norm and learning rate schedule, smoothed over 7 points</text>
<rect x="72" y="82" width="804" height="336" fill="white" stroke="#e2e8f0"/>
<line x1="72" y1="418.0" x2="876" y2="418.0" stroke="#e2e8f0" stroke-width="1"/>
<text x="62" y="422.0" font-family="Inter, ui-sans-serif, system-ui, -apple-system, Segoe UI, sans-serif" font-size="12" font-weight="400" fill="#64748b" text-anchor="end">0.01</text>
<line x1="72" y1="334.0" x2="876" y2="334.0" stroke="#e2e8f0" stroke-width="1"/>
<text x="62" y="338.0" font-family="Inter, ui-sans-serif, system-ui, -apple-system, Segoe UI, sans-serif" font-size="12" font-weight="400" fill="#64748b" text-anchor="end">1.50</text>
<line x1="72" y1="250.0" x2="876" y2="250.0" stroke="#e2e8f0" stroke-width="1"/>
<text x="62" y="254.0" font-family="Inter, ui-sans-serif, system-ui, -apple-system, Segoe UI, sans-serif" font-size="12" font-weight="400" fill="#64748b" text-anchor="end">3.00</text>
<line x1="72" y1="166.0" x2="876" y2="166.0" stroke="#e2e8f0" stroke-width="1"/>
<text x="62" y="170.0" font-family="Inter, ui-sans-serif, system-ui, -apple-system, Segoe UI, sans-serif" font-size="12" font-weight="400" fill="#64748b" text-anchor="end">4.50</text>
<line x1="72" y1="82.0" x2="876" y2="82.0" stroke="#e2e8f0" stroke-width="1"/>
<text x="62" y="86.0" font-family="Inter, ui-sans-serif, system-ui, -apple-system, Segoe UI, sans-serif" font-size="12" font-weight="400" fill="#64748b" text-anchor="end">5.99</text>
<line x1="232.8" y1="82" x2="232.8" y2="418" stroke="#e2e8f0" stroke-width="1"/>
<text x="232.77037550138948" y="442" font-family="Inter, ui-sans-serif, system-ui, -apple-system, Segoe UI, sans-serif" font-size="12" font-weight="400" fill="#64748b" text-anchor="middle">2</text>
<line x1="393.6" y1="82" x2="393.6" y2="418" stroke="#e2e8f0" stroke-width="1"/>
<text x="393.58290704304744" y="442" font-family="Inter, ui-sans-serif, system-ui, -apple-system, Segoe UI, sans-serif" font-size="12" font-weight="400" fill="#64748b" text-anchor="middle">4</text>
<line x1="554.4" y1="82" x2="554.4" y2="418" stroke="#e2e8f0" stroke-width="1"/>
<text x="554.3954385847053" y="442" font-family="Inter, ui-sans-serif, system-ui, -apple-system, Segoe UI, sans-serif" font-size="12" font-weight="400" fill="#64748b" text-anchor="middle">6</text>
<line x1="715.2" y1="82" x2="715.2" y2="418" stroke="#e2e8f0" stroke-width="1"/>
<text x="715.2079701263632" y="442" font-family="Inter, ui-sans-serif, system-ui, -apple-system, Segoe UI, sans-serif" font-size="12" font-weight="400" fill="#64748b" text-anchor="middle">8</text>
<text x="474.0" y="468" font-family="Inter, ui-sans-serif, system-ui, -apple-system, Segoe UI, sans-serif" font-size="12" font-weight="400" fill="#64748b" text-anchor="middle">tokens seen, billions</text>
<text x="16" y="250.0" font-family="Inter, ui-sans-serif, system-ui, -apple-system, Segoe UI, sans-serif" font-size="12" font-weight="400" fill="#64748b" text-anchor="start">grad norm / lr x 1e4</text>
<polyline points="72.0,216.9 76.2,304.8 80.4,336.7 84.6,350.2 88.8,353.5 93.0,357.1 97.3,361.0 101.5,383.9 105.7,383.8 109.9,382.9 114.1,382.7 118.3,386.7 122.5,389.8 126.8,391.9 131.0,394.5 135.2,395.9 139.4,397.0 143.6,398.6 147.8,399.4 152.1,400.4 156.3,401.0 160.5,401.7 164.7,401.5 168.9,401.7 173.1,402.0 177.3,402.4 181.6,402.1 185.8,402.1 190.0,402.7 194.2,403.3 198.4,403.4 202.6,403.6 206.9,403.7 211.1,403.9 215.3,404.2 219.5,404.3 223.7,404.0 227.9,404.0 232.2,404.1 236.4,404.1 240.6,404.4 244.8,404.3 249.0,404.2 253.2,404.7 257.4,404.9 261.7,404.3 265.9,404.4 270.1,404.4 274.3,404.3 278.5,404.3 282.7,404.1 287.0,403.9 291.2,404.0 295.4,404.0 299.6,403.9 303.8,403.7 308.0,403.9 312.2,404.0 316.5,404.2 320.7,404.6 324.9,404.7 329.1,404.9 333.3,404.8 337.5,404.9 341.8,404.2 346.0,404.0 350.2,404.2 354.4,404.4 358.6,404.4 362.8,404.6 367.1,404.3 371.3,405.3 375.5,405.5 379.7,405.1 383.9,404.8 388.1,404.9 392.3,405.1 396.6,405.4 400.8,404.3 405.0,404.1 409.2,404.3 413.4,404.5 417.6,402.5 421.9,402.3 426.1,402.4 430.3,403.1 434.5,403.4 438.7,403.5 442.9,403.3 447.1,405.2 451.4,405.0 455.6,404.7 459.8,404.9 464.0,404.7 468.2,404.6 472.4,404.9 476.7,405.0 480.9,405.2 485.1,405.5 489.3,405.3 493.5,405.2 497.7,405.2 501.9,405.1 506.2,405.1 510.4,405.1 514.6,405.0 518.8,405.1 523.0,405.1 527.2,405.1 531.5,405.1 535.7,405.1 539.9,405.2 544.1,405.2 548.3,405.3 552.5,405.4 556.8,405.5 561.0,405.3 565.2,404.9 569.4,404.6 573.6,404.5 577.8,404.4 582.0,404.3 586.3,404.3 590.5,404.5 594.7,404.6 598.9,404.7 603.1,404.7 607.3,404.7 611.6,404.9 615.8,404.9 620.0,404.9 624.2,404.9 628.4,405.0 632.6,405.0 636.8,405.2 641.1,405.0 645.3,405.0 649.5,405.0 653.7,404.9 657.9,404.8 662.1,405.0 666.4,404.6 670.6,404.8 674.8,404.8 679.0,404.6 683.2,404.6 687.4,404.7 691.7,404.7 695.9,404.6 700.1,404.4 704.3,404.3 708.5,404.4 712.7,404.3 716.9,404.4 721.2,404.4 725.4,404.7 729.6,404.9 733.8,404.9 738.0,404.8 742.2,404.9 746.5,404.8 750.7,404.7 754.9,404.6 759.1,404.6 763.3,404.7 767.5,404.7 771.7,404.7 776.0,404.8 780.2,404.8 784.4,404.9 788.6,404.9 792.8,404.8 797.0,404.7 801.3,404.5 805.5,404.4 809.7,404.3 813.9,404.0 818.1,404.1 822.3,404.1 826.6,404.2 830.8,404.5 835.0,404.4 839.2,404.1 843.4,403.9 847.6,403.8 851.8,403.8 856.1,403.8 860.3,403.4 864.5,403.4 868.7,403.5 872.9,403.9 876.0,403.9" fill="none" stroke="#f59e0b" stroke-width="3" stroke-linecap="round" stroke-linejoin="round"/>
<polyline points="72.0,418.0 76.2,394.7 80.4,371.2 84.6,347.7 88.8,324.1 93.0,300.6 97.3,277.1 101.5,230.0 105.7,188.6 109.9,154.0 114.1,126.0 118.3,104.9 122.5,90.5 126.8,82.9 131.0,82.0 135.2,82.2 139.4,82.4 143.6,82.7 147.8,83.0 152.1,83.4 156.3,83.8 160.5,84.3 164.7,84.8 168.9,85.3 173.1,85.9 177.3,86.5 181.6,87.2 185.8,87.9 190.0,88.7 194.2,89.5 198.4,90.3 202.6,91.2 206.9,92.1 211.1,93.1 215.3,94.1 219.5,95.2 223.7,96.2 227.9,97.4 232.2,98.5 236.4,99.8 240.6,101.0 244.8,102.3 249.0,103.6 253.2,105.0 257.4,106.4 261.7,107.8 265.9,109.3 270.1,110.8 274.3,112.3 278.5,113.9 282.7,115.5 287.0,117.2 291.2,118.9 295.4,120.6 299.6,122.3 303.8,124.1 308.0,125.9 312.2,127.8 316.5,129.7 320.7,131.6 324.9,133.5 329.1,135.5 333.3,137.5 337.5,139.5 341.8,141.6 346.0,143.6 350.2,145.7 354.4,147.9 358.6,150.0 362.8,152.2 367.1,154.4 371.3,156.6 375.5,158.9 379.7,161.2 383.9,163.4 388.1,165.8 392.3,168.1 396.6,170.4 400.8,172.8 405.0,175.2 409.2,177.6 413.4,180.0 417.6,182.5 421.9,184.9 426.1,187.4 430.3,189.8 434.5,192.3 438.7,194.8 442.9,197.4 447.1,199.9 451.4,202.4 455.6,205.0 459.8,207.5 464.0,210.1 468.2,212.6 472.4,215.2 476.7,217.8 480.9,220.4 485.1,222.9 489.3,225.5 493.5,228.1 497.7,230.7 501.9,233.3 506.2,235.9 510.4,238.5 514.6,241.1 518.8,243.7 523.0,246.3 527.2,248.8 531.5,251.4 535.7,254.0 539.9,256.6 544.1,259.1 548.3,261.7 552.5,264.2 556.8,266.7 561.0,269.3 565.2,271.8 569.4,274.3 573.6,276.8 577.8,279.2 582.0,281.7 586.3,284.2 590.5,286.6 594.7,289.0 598.9,291.4 603.1,293.8 607.3,296.2 611.6,298.5 615.8,300.8 620.0,303.2 624.2,305.4 628.4,307.7 632.6,310.0 636.8,312.2 641.1,314.4 645.3,316.6 649.5,318.7 653.7,320.8 657.9,322.9 662.1,325.0 666.4,327.1 670.6,329.1 674.8,331.1 679.0,333.0 683.2,335.0 687.4,336.9 691.7,338.8 695.9,340.6 700.1,342.4 704.3,344.2 708.5,345.9 712.7,347.7 716.9,349.3 721.2,351.0 725.4,352.6 729.6,354.2 733.8,355.7 738.0,357.2 742.2,358.7 746.5,360.1 750.7,361.5 754.9,362.9 759.1,364.2 763.3,365.5 767.5,366.7 771.7,367.9 776.0,369.1 780.2,370.2 784.4,371.3 788.6,372.4 792.8,373.4 797.0,374.3 801.3,375.3 805.5,376.1 809.7,377.0 813.9,377.8 818.1,378.5 822.3,379.2 826.6,379.9 830.8,380.5 835.0,381.1 839.2,381.6 843.4,382.1 847.6,382.6 851.8,383.0 856.1,383.4 860.3,383.7 864.5,384.0 868.7,384.2 872.9,384.4 876.0,384.5" fill="none" stroke="#2563eb" stroke-width="3" stroke-linecap="round" stroke-linejoin="round"/>
<line x1="620" y1="36" x2="644" y2="36" stroke="#f59e0b" stroke-width="4" stroke-linecap="round"/>
<text x="652" y="40" font-family="Inter, ui-sans-serif, system-ui, -apple-system, Segoe UI, sans-serif" font-size="12" font-weight="400" fill="#64748b" text-anchor="start">grad norm</text>
<line x1="748" y1="36" x2="772" y2="36" stroke="#2563eb" stroke-width="4" stroke-linecap="round"/>
<text x="780" y="40" font-family="Inter, ui-sans-serif, system-ui, -apple-system, Segoe UI, sans-serif" font-size="12" font-weight="400" fill="#64748b" text-anchor="start">lr x 1e4</text>
</svg>